<svg width="15" height="16" viewBox="0 0 15 16" fill="none" xmlns="http://www.w3.org/2000/svg">
<path d="M13.728 9C14.2803 9 14.728 8.55228 14.728 8C14.728 7.44772 14.2803 7 13.728 7L13.728 9ZM0.292998 7.29289C-0.0975265 7.68342 -0.0975266 8.31658 0.292998 8.70711L6.65696 15.0711C7.04748 15.4616 7.68065 15.4616 8.07117 15.0711C8.4617 14.6805 8.4617 14.0474 8.07117 13.6569L2.41432 8L8.07117 2.34315C8.4617 1.95262 8.4617 1.31946 8.07117 0.928932C7.68065 0.538407 7.04748 0.538407 6.65696 0.928932L0.292998 7.29289ZM13.728 7L1.0001 7L1.0001 9L13.728 9L13.728 7Z" fill="black" fill-opacity="0.48"/>
</svg>
