<svg width="53" height="33" viewBox="0 0 53 33" fill="none" xmlns="http://www.w3.org/2000/svg">
<path d="M45.4099 13.2C28.3127 -3.67503 9.7908 6.16874 2.66699 13.2C19.7641 -10.7065 43.0352 3.23897 52.5337 13.2H45.4099Z" fill="#24A347"/>
<path d="M7.59064 19.8C24.6878 36.675 43.2097 26.8313 50.3335 19.8C33.2364 43.7065 9.96524 29.761 0.466826 19.8L7.59064 19.8Z" fill="#24A347"/>
<path d="M7.7786 16.6016L16.4203 11.8661L25.0789 16.6014L16.4203 21.337L7.7786 16.6016Z" stroke="#24A347" stroke-width="0.5"/>
<path d="M27.3035 16.6016L35.9452 11.8661L44.6038 16.6014L35.9452 21.337L27.3035 16.6016Z" stroke="#24A347" stroke-width="0.5"/>
<path d="M17.8372 11.2852L26.4789 6.54972L35.1375 11.285L26.4789 16.0206L17.8372 11.2852Z" stroke="#24A347" stroke-width="0.5"/>
<path d="M17.8372 21.9356L26.4789 17.2001L35.1375 21.9354L26.4789 26.671L17.8372 21.9356Z" stroke="#24A347" stroke-width="0.5"/>
</svg>
